<svg width="31" height="33" viewBox="0 0 31 33" fill="none" xmlns="http://www.w3.org/2000/svg">
<g clip-path="url(#clip0_5_24)">
<path d="M23.2023 5.87363C24.0096 6.50935 24.7715 7.05079 25.4518 7.68347C25.6393 7.85989 25.6786 8.33136 25.6151 8.62946C25.1616 10.7769 24.0731 12.5837 22.253 13.77C20.6989 14.7829 19.0118 15.6072 17.3247 16.3829C15.2656 17.3319 13.1069 18.065 11.0569 19.0292C7.67967 20.6201 4.92526 22.9105 3.40746 26.4663C2.61228 28.3279 2.22527 30.2868 2.11038 32.2974C2.08014 32.8175 1.92292 33.0517 1.39985 32.9787C1.37567 32.9757 1.34845 32.9787 1.32427 32.9787C-0.157252 32.9635 0.0181111 33.143 0.0120641 31.7042C0.0029936 29.2708 0.0271816 26.8374 -2.99083e-05 24.404C-0.00607692 23.8352 0.166263 23.4884 0.628859 23.1478C4.52313 20.2855 7.23824 16.5989 8.00319 11.729C8.27833 9.97695 8.12715 8.1519 8.10901 6.36031C8.10296 5.88275 8.13622 5.54816 8.55649 5.26832C9.05839 4.93372 9.53913 4.5535 9.98661 4.14895C10.4039 3.77177 10.7969 3.8174 11.0932 4.20979C11.6072 4.89114 12.1182 5.59074 12.5022 6.34814C12.8892 7.10858 13.125 7.95114 13.4243 8.75721C14.3314 11.2058 16.2332 11.9024 18.4827 10.5792C20.076 9.64236 21.2703 8.26445 22.4283 6.85003C22.6611 6.55194 22.894 6.25689 23.2023 5.87363V5.87363Z" fill="url(#paint0_linear_5_24)"/>
<path d="M27.6832 9.396C28.7384 10.2203 29.7452 10.9777 30.7127 11.7838C30.8851 11.9267 30.9667 12.2674 30.9727 12.5199C30.9939 14.1411 30.9758 15.7654 30.9909 17.3867C30.9939 17.8064 30.9062 18.0346 30.4285 18.0772C21.0194 18.9319 14.6005 24.2671 9.85658 32.0601C9.42724 32.7658 9.00395 33.0456 8.19667 32.9909C7.09309 32.9179 5.98044 32.9544 4.87082 32.9818C4.3538 32.9939 4.15727 32.8479 4.19658 32.2913C4.53219 27.6161 6.44909 23.8839 10.6639 21.6451C12.6624 20.5836 14.797 19.7805 16.8651 18.8528C18.5189 18.1106 20.2121 17.4354 21.8115 16.5867C24.5962 15.1084 26.5887 12.9001 27.4957 9.80055C27.5259 9.70321 27.5804 9.61804 27.6832 9.396V9.396Z" fill="url(#paint1_linear_5_24)"/>
<path d="M11.8884 32.8966C11.967 32.6959 12.0003 32.5499 12.0759 32.4312C14.8787 28.0085 18.4101 24.3767 23.1842 22.1045C25.3914 21.0551 27.7195 20.4437 30.1504 20.2186C30.7491 20.1638 31.0061 20.2764 31 20.9608C30.9698 24.7113 30.9849 28.4617 30.9849 32.2092C30.9849 32.5864 31.0575 32.9848 30.4528 32.9848C29.9509 32.9818 29.6636 32.927 29.5003 32.3157C29.0952 30.7796 28.7414 29.1887 28.043 27.7834C26.1352 23.9387 22.3225 23.7683 20.1154 27.4549C19.2476 28.9028 18.7971 30.6092 18.2438 32.2305C18.0564 32.778 17.8629 33.0031 17.2703 32.9879C15.686 32.9483 14.0986 32.9757 12.5113 32.9696C12.3238 32.9696 12.1364 32.927 11.8884 32.8966V32.8966Z" fill="url(#paint2_linear_5_24)"/>
<path d="M0.0785804 20.8271C0.0483453 20.5746 0.0120632 20.4042 0.0120632 20.237C0.00903974 17.6788 -3.07738e-05 15.1207 0.0241573 12.5626C0.0271808 12.2736 0.160215 11.8873 0.37186 11.717C2.13759 10.2904 3.93657 8.90033 5.72649 7.50417C5.79905 7.44637 5.90185 7.43116 5.99256 7.39771C7.27452 10.8957 3.991 18.4119 0.0785804 20.8271Z" fill="url(#paint3_linear_5_24)"/>
<path d="M12.2845 2.36344C13.3125 1.55738 14.2709 0.790857 15.2536 0.0547519C15.3654 -0.0304173 15.6617 -0.0152085 15.7797 0.0760441C17.6754 1.53609 19.553 3.01742 21.5243 4.55959C20.197 6.28731 18.9301 7.96636 16.9891 8.96101C16.3481 9.28952 15.8734 9.07355 15.571 8.43479C15.5166 8.3192 15.4592 8.20666 15.4199 8.08803C14.7335 6.01355 13.9928 3.97253 12.2845 2.36344Z" fill="url(#paint4_linear_5_24)"/>
<path d="M20.2031 32.9118C20.7533 30.883 21.225 28.915 22.7791 27.4732C23.6529 26.661 24.7232 26.7462 25.5093 27.677C26.7641 29.1583 27.1239 30.9925 27.4837 32.9149C25.0316 32.9149 22.6884 32.9149 20.2031 32.9149V32.9118Z" fill="url(#paint5_linear_5_24)"/>
</g>
<defs>
<linearGradient id="paint0_linear_5_24" x1="12.8216" y1="3.8894" x2="12.8216" y2="32.9918" gradientUnits="userSpaceOnUse">
<stop stop-color="#FD9E5A"/>
<stop offset="1" stop-color="#FC4FEB"/>
</linearGradient>
<linearGradient id="paint1_linear_5_24" x1="17.5913" y1="9.396" x2="17.5913" y2="32.9976" gradientUnits="userSpaceOnUse">
<stop stop-color="#FD9E5A"/>
<stop offset="1" stop-color="#FC4FEB"/>
</linearGradient>
<linearGradient id="paint2_linear_5_24" x1="21.4443" y1="20.2065" x2="21.4443" y2="32.9886" gradientUnits="userSpaceOnUse">
<stop stop-color="#FD9E5A"/>
<stop offset="1" stop-color="#FC4FEB"/>
</linearGradient>
<linearGradient id="paint3_linear_5_24" x1="3.14122" y1="7.39771" x2="3.14122" y2="20.8271" gradientUnits="userSpaceOnUse">
<stop stop-color="#FD9E5A"/>
<stop offset="1" stop-color="#FC4FEB"/>
</linearGradient>
<linearGradient id="paint4_linear_5_24" x1="16.9044" y1="-0.00146484" x2="16.9044" y2="9.11319" gradientUnits="userSpaceOnUse">
<stop stop-color="#FD9E5A"/>
<stop offset="1" stop-color="#FC4FEB"/>
</linearGradient>
<linearGradient id="paint5_linear_5_24" x1="23.8434" y1="26.917" x2="23.8434" y2="32.9149" gradientUnits="userSpaceOnUse">
<stop stop-color="#FD9E5A"/>
<stop offset="1" stop-color="#FC4FEB"/>
</linearGradient>
<clipPath id="clip0_5_24">
<rect width="31" height="33" fill="white"/>
</clipPath>
</defs>
</svg>
