<svg width="472" height="111" viewBox="0 0 472 111" fill="none" xmlns="http://www.w3.org/2000/svg">
<path d="M76.343 20.4008C78.9993 22.5006 81.5062 24.289 83.7446 26.3787C84.3616 26.9615 84.4909 28.5188 84.2819 29.5034C82.7898 36.5964 79.2083 42.5644 73.2195 46.4827C68.106 49.8284 62.5549 52.5511 57.0038 55.1132C50.2287 58.2478 43.1259 60.6693 36.3808 63.854C25.2686 69.1088 16.2057 76.6741 11.2116 88.419C8.59524 94.5679 7.32185 101.038 6.94382 107.679C6.84432 109.397 6.32702 110.171 4.60595 109.93C4.52639 109.92 4.43683 109.93 4.35727 109.93C-0.517418 109.879 0.0595835 110.472 0.0396869 105.72C0.00984204 97.6824 0.0894284 89.6448 -0.000106284 81.6072C-0.0200029 79.7284 0.547051 78.5829 2.06914 77.4579C14.8825 68.0036 23.8161 55.8267 26.3331 39.7413C27.2384 33.9542 26.7409 27.926 26.6812 22.0083C26.6613 20.4309 26.7708 19.3258 28.1536 18.4014C29.805 17.2962 31.3868 16.0404 32.8592 14.7041C34.2322 13.4583 35.5253 13.609 36.5002 14.9051C38.1914 17.1556 39.8728 19.4664 41.1363 21.9681C42.4096 24.4799 43.1855 27.2629 44.1703 29.9253C47.1549 38.0131 53.4125 40.314 60.814 35.9434C66.0565 32.849 69.9861 28.2977 73.7963 23.6259C74.5623 22.6413 75.3286 21.6667 76.343 20.4008Z" fill="url(#paint0_linear_301_327)"/>
<path d="M91.0867 32.0353C94.5586 34.758 97.8713 37.2597 101.055 39.9223C101.622 40.3943 101.89 41.5196 101.91 42.3536C101.98 47.7085 101.92 53.0736 101.97 58.4288C101.98 59.8151 101.691 60.5688 100.12 60.7095C69.1606 63.5326 48.0403 81.155 32.4313 106.895C31.0187 109.226 29.6259 110.151 26.9697 109.97C23.3385 109.729 19.6776 109.849 16.0266 109.94C14.3254 109.98 13.6788 109.498 13.8081 107.659C14.9124 92.2168 21.2196 79.8892 35.0877 72.4944C41.6634 68.9883 48.6869 66.3356 55.4916 63.2714C60.9332 60.8199 66.5043 58.5897 71.7669 55.7864C80.9294 50.9035 87.4854 43.6094 90.4697 33.3715C90.5691 33.05 90.7484 32.7687 91.0867 32.0353Z" fill="url(#paint1_linear_301_327)"/>
<path d="M39.1167 109.658C39.3753 108.996 39.4849 108.513 39.7336 108.121C48.9557 93.5129 60.5752 81.517 76.2835 74.0118C83.5459 70.5456 91.2061 68.5262 99.2045 67.7827C101.174 67.6017 102.02 67.9736 102 70.2342C101.901 82.6222 101.95 95.0099 101.95 107.388C101.95 108.634 102.189 109.95 100.2 109.95C98.5481 109.94 97.6028 109.759 97.0655 107.74C95.7326 102.666 94.5685 97.4112 92.2705 92.7694C85.9932 80.0703 73.4482 79.5074 66.1862 91.6844C63.3308 96.4668 61.8485 102.103 60.028 107.458C59.4114 109.267 58.7747 110.01 56.8249 109.96C51.612 109.829 46.3889 109.92 41.1662 109.9C40.5493 109.9 39.9327 109.759 39.1167 109.658Z" fill="url(#paint2_linear_301_327)"/>
<path d="M0.258558 69.7926C0.159075 68.9585 0.0396948 68.3957 0.0396948 67.8434C0.0297466 59.3936 -9.82862e-05 50.9441 0.0794883 42.4947C0.0894366 41.5401 0.527162 40.2641 1.22354 39.7016C7.03336 34.9895 12.9526 30.3981 18.842 25.7865C19.0807 25.5956 19.419 25.5454 19.7175 25.4349C23.9355 36.9888 13.1317 61.8151 0.258558 69.7926Z" fill="url(#paint3_linear_301_327)"/>
<path d="M40.42 8.80653C43.8024 6.14409 46.9559 3.61224 50.1893 1.18086C50.5571 0.899547 51.532 0.949782 51.9203 1.25119C58.1578 6.07377 64.3357 10.9666 70.8219 16.0605C66.4546 21.7672 62.2861 27.3131 55.8996 30.5985C53.7905 31.6836 52.2286 30.9702 51.2336 28.8604C51.0546 28.4786 50.8658 28.1069 50.7364 27.715C48.478 20.863 46.0408 14.1214 40.42 8.80653Z" fill="url(#paint4_linear_301_327)"/>
<path d="M66.4747 109.709C68.2851 103.007 69.8371 96.5071 74.9506 91.7448C77.8257 89.0621 81.3473 89.3435 83.9338 92.418C88.0625 97.3108 89.2464 103.369 90.4302 109.719C82.362 109.719 74.6522 109.719 66.4747 109.719V109.709Z" fill="url(#paint5_linear_301_327)"/>
<path d="M151.824 101.312C152.528 101.632 153.424 101.92 154.512 102.176C155.664 102.496 156.784 102.656 157.872 102.656C161.392 102.656 164.144 101.856 166.128 100.256C168.112 98.72 169.904 96.192 171.504 92.672C167.472 84.992 163.696 76.864 160.176 68.288C156.72 59.648 153.84 50.912 151.536 42.08H161.136C161.84 44.96 162.672 48.064 163.632 51.392C164.656 54.72 165.776 58.144 166.992 61.664C168.208 65.184 169.52 68.704 170.928 72.224C172.336 75.744 173.808 79.136 175.344 82.4C177.776 75.68 179.888 69.024 181.68 62.432C183.472 55.84 185.168 49.056 186.768 42.08H195.984C193.68 51.488 191.12 60.544 188.304 69.248C185.488 77.888 182.448 85.984 179.184 93.536C177.904 96.416 176.56 98.88 175.152 100.928C173.808 103.04 172.304 104.768 170.64 106.112C168.976 107.456 167.088 108.448 164.976 109.088C162.928 109.728 160.592 110.048 157.968 110.048C157.264 110.048 156.528 109.984 155.76 109.856C154.992 109.792 154.224 109.664 153.456 109.472C152.752 109.344 152.08 109.184 151.44 108.992C150.864 108.8 150.448 108.64 150.192 108.512L151.824 101.312ZM222.295 85.568C224.407 85.568 226.263 85.536 227.863 85.472C229.527 85.344 230.903 85.152 231.991 84.896V70.016C231.351 69.696 230.295 69.44 228.823 69.248C227.415 68.992 225.687 68.864 223.639 68.864C222.295 68.864 220.855 68.96 219.319 69.152C217.847 69.344 216.471 69.76 215.191 70.4C213.975 70.976 212.951 71.808 212.119 72.896C211.287 73.92 210.871 75.296 210.871 77.024C210.871 80.224 211.895 82.464 213.943 83.744C215.991 84.96 218.775 85.568 222.295 85.568ZM221.527 40.832C225.111 40.832 228.119 41.312 230.551 42.272C233.047 43.168 235.031 44.48 236.503 46.208C238.039 47.872 239.127 49.888 239.767 52.256C240.407 54.56 240.727 57.12 240.727 59.936V91.136C239.959 91.264 238.871 91.456 237.463 91.712C236.119 91.904 234.583 92.096 232.855 92.288C231.127 92.48 229.239 92.64 227.191 92.768C225.207 92.96 223.223 93.056 221.239 93.056C218.423 93.056 215.831 92.768 213.463 92.192C211.095 91.616 209.047 90.72 207.319 89.504C205.591 88.224 204.247 86.56 203.287 84.512C202.327 82.464 201.847 80 201.847 77.12C201.847 74.368 202.391 72 203.479 70.016C204.631 68.032 206.167 66.432 208.087 65.216C210.007 64 212.247 63.104 214.807 62.528C217.367 61.952 220.055 61.664 222.871 61.664C223.767 61.664 224.695 61.728 225.655 61.856C226.615 61.92 227.511 62.048 228.343 62.24C229.239 62.368 230.007 62.496 230.647 62.624C231.287 62.752 231.735 62.848 231.991 62.912V60.416C231.991 58.944 231.831 57.504 231.511 56.096C231.191 54.624 230.615 53.344 229.783 52.256C228.951 51.104 227.799 50.208 226.327 49.568C224.919 48.864 223.063 48.512 220.759 48.512C217.815 48.512 215.223 48.736 212.983 49.184C210.807 49.568 209.175 49.984 208.087 50.432L207.031 43.04C208.183 42.528 210.103 42.048 212.791 41.6C215.479 41.088 218.391 40.832 221.527 40.832ZM273.987 41.024C274.755 41.024 275.619 41.088 276.579 41.216C277.603 41.28 278.595 41.408 279.555 41.6C280.515 41.728 281.379 41.888 282.147 42.08C282.979 42.208 283.587 42.336 283.971 42.464L282.435 50.24C281.731 49.984 280.547 49.696 278.883 49.376C277.283 48.992 275.203 48.8 272.643 48.8C270.979 48.8 269.315 48.992 267.651 49.376C266.051 49.696 264.995 49.92 264.483 50.048V92H255.555V44.192C257.667 43.424 260.291 42.72 263.427 42.08C266.563 41.376 270.083 41.024 273.987 41.024ZM324.842 52.64C323.754 51.744 322.186 50.88 320.138 50.048C318.09 49.216 315.85 48.8 313.418 48.8C310.858 48.8 308.65 49.28 306.794 50.24C305.002 51.136 303.53 52.416 302.378 54.08C301.226 55.68 300.394 57.6 299.882 59.84C299.37 62.08 299.114 64.48 299.114 67.04C299.114 72.864 300.554 77.376 303.434 80.576C306.314 83.712 310.154 85.28 314.954 85.28C317.386 85.28 319.402 85.184 321.002 84.992C322.666 84.736 323.946 84.48 324.842 84.224V52.64ZM324.842 19.04L333.77 17.504V90.56C331.722 91.136 329.098 91.712 325.898 92.288C322.698 92.864 319.018 93.152 314.858 93.152C311.018 93.152 307.562 92.544 304.49 91.328C301.418 90.112 298.794 88.384 296.618 86.144C294.442 83.904 292.746 81.184 291.53 77.984C290.378 74.72 289.802 71.072 289.802 67.04C289.802 63.2 290.282 59.68 291.242 56.48C292.266 53.28 293.738 50.528 295.658 48.224C297.578 45.92 299.914 44.128 302.666 42.848C305.482 41.568 308.682 40.928 312.266 40.928C315.146 40.928 317.674 41.312 319.85 42.08C322.09 42.848 323.754 43.584 324.842 44.288V19.04ZM346.334 67.136C346.334 62.72 346.974 58.88 348.254 55.616C349.534 52.288 351.23 49.536 353.342 47.36C355.454 45.184 357.886 43.552 360.638 42.464C363.39 41.376 366.206 40.832 369.086 40.832C375.806 40.832 380.958 42.944 384.542 47.168C388.126 51.328 389.917 57.696 389.917 66.272C389.917 66.656 389.917 67.168 389.917 67.808C389.917 68.384 389.885 68.928 389.822 69.44H355.646C356.03 74.624 357.534 78.56 360.158 81.248C362.782 83.936 366.878 85.28 372.446 85.28C375.582 85.28 378.206 85.024 380.318 84.512C382.494 83.936 384.126 83.392 385.214 82.88L386.462 90.368C385.374 90.944 383.454 91.552 380.702 92.192C378.014 92.832 374.942 93.152 371.486 93.152C367.134 93.152 363.358 92.512 360.158 91.232C357.022 89.888 354.43 88.064 352.382 85.76C350.334 83.456 348.798 80.736 347.773 77.6C346.814 74.4 346.334 70.912 346.334 67.136ZM380.606 62.24C380.67 58.208 379.646 54.912 377.534 52.352C375.486 49.728 372.638 48.416 368.99 48.416C366.942 48.416 365.118 48.832 363.518 49.664C361.982 50.432 360.67 51.456 359.582 52.736C358.494 54.016 357.63 55.488 356.99 57.152C356.414 58.816 356.03 60.512 355.838 62.24H380.606ZM421.175 41.024C421.943 41.024 422.807 41.088 423.767 41.216C424.791 41.28 425.783 41.408 426.743 41.6C427.703 41.728 428.567 41.888 429.335 42.08C430.167 42.208 430.775 42.336 431.159 42.464L429.623 50.24C428.919 49.984 427.735 49.696 426.071 49.376C424.471 48.992 422.391 48.8 419.831 48.8C418.167 48.8 416.503 48.992 414.839 49.376C413.239 49.696 412.183 49.92 411.671 50.048V92H402.743V44.192C404.855 43.424 407.479 42.72 410.615 42.08C413.751 41.376 417.271 41.024 421.175 41.024ZM445.084 86.816C445.084 88.544 444.508 90.048 443.356 91.328C442.204 92.608 440.636 93.248 438.652 93.248C436.668 93.248 435.1 92.608 433.948 91.328C432.796 90.048 432.22 88.544 432.22 86.816C432.22 85.088 432.796 83.584 433.948 82.304C435.1 81.024 436.668 80.384 438.652 80.384C440.636 80.384 442.204 81.024 443.356 82.304C444.508 83.584 445.084 85.088 445.084 86.816Z" fill="url(#paint6_linear_301_327)"/>
<defs>
<linearGradient id="paint0_linear_301_327" x1="42.1872" y1="13.8468" x2="42.1872" y2="109.973" gradientUnits="userSpaceOnUse">
<stop stop-color="#FD9E5A"/>
<stop offset="1" stop-color="#FC4FEB"/>
</linearGradient>
<linearGradient id="paint1_linear_301_327" x1="57.881" y1="32.0353" x2="57.881" y2="109.992" gradientUnits="userSpaceOnUse">
<stop stop-color="#FD9E5A"/>
<stop offset="1" stop-color="#FC4FEB"/>
</linearGradient>
<linearGradient id="paint2_linear_301_327" x1="70.5587" y1="67.7427" x2="70.5587" y2="109.962" gradientUnits="userSpaceOnUse">
<stop stop-color="#FD9E5A"/>
<stop offset="1" stop-color="#FC4FEB"/>
</linearGradient>
<linearGradient id="paint3_linear_301_327" x1="10.3356" y1="25.4349" x2="10.3356" y2="69.7926" gradientUnits="userSpaceOnUse">
<stop stop-color="#FD9E5A"/>
<stop offset="1" stop-color="#FC4FEB"/>
</linearGradient>
<linearGradient id="paint4_linear_301_327" x1="55.6209" y1="0.995178" x2="55.6209" y2="31.1012" gradientUnits="userSpaceOnUse">
<stop stop-color="#FD9E5A"/>
<stop offset="1" stop-color="#FC4FEB"/>
</linearGradient>
<linearGradient id="paint5_linear_301_327" x1="78.4525" y1="89.9077" x2="78.4525" y2="109.719" gradientUnits="userSpaceOnUse">
<stop stop-color="#FD9E5A"/>
<stop offset="1" stop-color="#FC4FEB"/>
</linearGradient>
<linearGradient id="paint6_linear_301_327" x1="11.5" y1="0.999983" x2="552.5" y2="109" gradientUnits="userSpaceOnUse">
<stop stop-color="#FD9E5A"/>
<stop offset="1" stop-color="#FC4FEB"/>
</linearGradient>
</defs>
</svg>
